<svg width="10" height="12" viewBox="0 0 10 12" fill="none" xmlns="http://www.w3.org/2000/svg">
<path d="M2.83289 2.05939H4.85063C5.34195 2.05939 5.99067 2.05939 6.32458 2.25684C6.69187 2.4731 6.97808 2.8633 6.97808 3.40393C6.97808 3.94457 6.66802 4.4241 6.15286 4.63095V4.64505C6.83974 4.78139 7.21181 5.28912 7.21181 5.96609C7.21181 6.64307 6.62509 7.541 5.51844 7.541H2.82812V2.05469L2.83289 2.05939ZM3.57702 4.4194H5.06051C5.90004 4.4194 6.24349 4.11852 6.24349 3.54497C6.24349 2.97142 5.6997 2.67525 5.06051 2.67525H3.57702V4.4194ZM3.57702 6.93454H5.43258C6.07176 6.93454 6.47722 6.54904 6.47722 5.95199C6.47722 5.35494 5.8905 5.03996 5.2704 5.03996H3.57702V6.93924V6.93454Z" fill="#1B0025"/>
<path d="M9.11081 4.80464C9.11081 7.10823 7.2171 8.97931 4.875 8.97931C2.5329 8.97931 0.643958 7.11293 0.643958 4.80464C0.643958 2.49634 2.53767 0.629962 4.87977 0.629962C7.22187 0.629962 9.11558 2.49634 9.11558 4.80464H9.11081ZM4.875 0C2.18469 0 0 2.14845 0 4.80464C0 7.46082 2.18469 9.60927 4.875 9.60927C7.56531 9.60927 9.75 7.45612 9.75 4.80464C9.75 2.15315 7.56531 0 4.875 0Z" fill="#1B0025"/>
<path d="M9.73603 10.6387H0.0146484V11.2498H9.73603V10.6387Z" fill="#1B0025"/>
</svg>
