<svg width="41" height="16" viewBox="0 0 41 16" fill="none" xmlns="http://www.w3.org/2000/svg">
<path d="M5.72297 4.39345C5.72297 4.95786 5.76637 6.34413 5.76637 8.16608C5.76637 10.3148 4.78763 12.008 2.39622 12.008C1.6923 12.008 0.756956 11.909 0 11.5822C0.110892 11.102 0.400175 9.64641 0.467674 9.00774C0.906419 9.26024 1.36445 9.41867 2.03462 9.41867C2.70479 9.41867 3.10979 9.00774 3.10979 8.32946C3.10979 5.1757 3.10979 2.35365 3.01336 1.2793H5.7519C5.73744 2.36851 5.72297 3.21512 5.72297 4.3885V4.39345ZM23.2728 8.19083C23.2728 9.36421 23.3017 10.3792 23.3017 11.3149C23.3017 13.9488 22.2989 15.345 18.9962 15.345C17.2991 15.345 15.8575 15.0083 15.0331 14.4934C15.2934 13.9339 15.5345 12.9437 15.6598 12.3744C16.6627 12.9883 17.8439 13.2111 18.8902 13.2111C20.2884 13.2111 20.8862 12.8051 20.8862 11.7605C20.9007 11.3842 20.9151 11.0624 20.9537 10.6168L20.9007 10.6019C20.4667 11.3842 19.676 11.8298 18.3598 11.8298C16.2143 11.8298 15.2355 11.0772 15.2355 9.40382C15.2355 8.42848 15.25 6.52236 15.25 5.73021C15.25 4.93805 15.25 4.26472 15.2211 3.62605H17.7475C17.7186 4.53207 17.7089 6.93824 17.7089 8.62652C17.7089 9.54739 18.1187 9.93852 19.0396 9.93852C20.0859 9.93852 20.8476 9.39391 20.8476 8.21064V3.62605H23.3065C23.2776 4.60139 23.2776 6.76 23.2776 8.19578L23.2728 8.19083ZM14.2857 6.55206C14.2857 4.57168 13.225 3.27453 10.4142 3.27453C7.60331 3.27453 6.5185 4.77962 6.63903 6.78971C6.97653 6.73525 7.46831 6.73525 7.95527 6.73525C8.33616 6.73525 8.73151 6.73525 9.02562 6.7501C8.98705 5.78962 9.42097 5.38364 10.4527 5.38364C11.4315 5.38364 11.7979 5.82923 11.7979 6.62633C11.7979 6.84912 11.7979 7.08677 11.7834 7.32441C11.3061 7.2551 10.6311 7.2254 9.93686 7.2254C7.55992 7.2254 6.39315 7.96309 6.39315 9.70582C6.39315 11.4486 7.34296 12.0229 9.09794 12.0229C10.4961 12.0229 11.4218 11.5228 11.7738 10.4732L11.8413 10.4881C11.8268 10.7653 11.8124 11.0574 11.8124 11.2951C11.8124 11.8248 11.9088 11.8793 12.3572 11.8793H14.4497C14.3147 11.503 14.2472 10.3445 14.2472 9.38401C14.2472 8.42353 14.2857 7.61157 14.2857 6.55206ZM10.0381 10.2059C9.14133 10.2059 8.82794 9.92862 8.82794 9.33945C8.82794 8.69583 9.26186 8.40372 10.2695 8.40372C10.7999 8.40372 11.3013 8.41858 11.7786 8.48789C11.7642 9.54739 11.0843 10.2009 10.0381 10.2009V10.2059Z" fill="#1B0025"/>
<path d="M26.3922 2.71557C26.4934 2.66606 26.6959 2.62645 26.8165 2.58684C27.2407 2.45317 27.7229 2.27988 28.0604 1.96797C28.4557 1.6016 28.6438 1.06195 28.798 0.556952C28.8318 0.438129 28.8752 0.215336 28.9234 0.121268C28.9668 0.0420526 29.0584 -0.012408 29.1452 0.00244492C29.2127 0.0123468 29.2802 0.0569054 29.3091 0.121268C29.5261 0.854009 29.7045 1.65606 30.3553 2.12145C30.8037 2.43832 31.281 2.52743 31.7825 2.70072C32.0043 2.77993 32.0187 3.05223 31.8066 3.1364C31.5944 3.22057 31.3485 3.27008 31.1268 3.34929C30.2059 3.68101 29.8443 4.06223 29.5261 5.00786C29.4537 5.2257 29.4055 5.46335 29.3284 5.67624C29.2513 5.90399 28.9764 5.89903 28.8993 5.66139C28.7209 5.11678 28.6293 4.58208 28.2773 4.11174C28.2002 4.00777 28.1086 3.90875 28.0073 3.82458C27.7856 3.63645 27.5252 3.50772 27.26 3.40375C26.99 3.29978 26.7056 3.21562 26.4307 3.13145C26.2475 3.07699 26.2234 2.80469 26.397 2.71557H26.3922ZM30.6928 9.81029C30.1818 9.66671 29.6996 9.6073 29.232 9.32014C28.5521 8.89931 28.3304 8.11211 28.07 7.38927C28.0363 7.32986 27.9639 7.2853 27.8964 7.28035C27.8097 7.2754 27.7181 7.32986 27.6843 7.41403C27.6409 7.51305 27.612 7.74079 27.5831 7.85961C27.4577 8.37451 27.3034 8.92407 26.9322 9.31519C26.614 9.64691 26.1463 9.8499 25.7316 10.0083C25.6159 10.0529 25.4183 10.1024 25.317 10.1618C25.1483 10.2608 25.1868 10.5282 25.3749 10.5727C25.6593 10.6421 25.9438 10.7015 26.2186 10.7906C26.4934 10.8797 26.7586 10.9936 26.99 11.1669C27.0961 11.2461 27.1925 11.3352 27.2745 11.4342C27.6554 11.8798 27.7759 12.4095 27.9881 12.9393C28.0797 13.167 28.3497 13.1571 28.4172 12.9244C28.4798 12.7066 28.5136 12.469 28.5714 12.2462C28.8366 11.2807 29.1741 10.8797 30.0709 10.4886C30.2878 10.3945 30.5289 10.3301 30.7362 10.2361C30.9436 10.142 30.9146 9.8697 30.688 9.80534L30.6928 9.81029ZM39.7811 6.56246C38.9085 6.2555 38.0744 6.10202 37.2885 5.54752C36.1506 4.74051 35.8469 3.33939 35.4612 2.05709C35.4081 1.95312 35.2828 1.86896 35.1719 1.8541C35.0176 1.8343 34.8585 1.92342 34.7862 2.06204C34.6994 2.23038 34.6271 2.6215 34.5644 2.82449C34.2944 3.71071 33.9666 4.65139 33.2819 5.29007C32.6985 5.82972 31.8548 6.13173 31.1123 6.36937C30.905 6.43374 30.553 6.50305 30.3746 6.59217C30.0709 6.74565 30.1095 7.21599 30.4325 7.31501C30.9194 7.46354 31.4064 7.60216 31.8837 7.7903C32.3514 7.97348 32.8046 8.20123 33.1903 8.52799C33.3639 8.67652 33.523 8.8399 33.6628 9.02309C34.2751 9.83999 34.439 10.7807 34.7524 11.7263C34.8874 12.1372 35.3599 12.1471 35.4998 11.7511C35.6299 11.3797 35.7119 10.9639 35.8421 10.5826C36.4014 8.93397 37.0281 8.26559 38.6385 7.68633C39.0242 7.5477 39.4581 7.45858 39.8293 7.31501C40.2006 7.17143 40.1765 6.69119 39.786 6.55751L39.7811 6.56246Z" fill="url(#paint0_linear_2_1561)"/>
<defs>
<linearGradient id="paint0_linear_2_1561" x1="34.9983" y1="1.71548" x2="28.2171" y2="13.1499" gradientUnits="userSpaceOnUse">
<stop offset="0.1" stop-color="#6144DD"/>
<stop offset="0.12" stop-color="#6745D7"/>
<stop offset="0.2" stop-color="#8E4EB2"/>
<stop offset="0.3" stop-color="#B05693"/>
<stop offset="0.4" stop-color="#CB5C79"/>
<stop offset="0.51" stop-color="#E06165"/>
<stop offset="0.64" stop-color="#EF6557"/>
<stop offset="0.78" stop-color="#F8674F"/>
<stop offset="1" stop-color="#FB684D"/>
</linearGradient>
</defs>
</svg>
