<svg width="95" height="16" viewBox="0 0 95 16" fill="none" xmlns="http://www.w3.org/2000/svg">
<path d="M7.76855 3.05442C7.76855 3.60977 7.81166 4.97206 7.81166 6.76237C7.81166 8.87331 6.78642 10.5409 4.26963 10.5409C3.53343 10.5409 2.54971 10.4427 1.75443 10.1236C1.871 9.65264 2.17442 8.22131 2.24629 7.59693C2.70781 7.84699 3.18529 7.99887 3.89434 7.99887C4.60179 7.99887 5.02179 7.59693 5.02179 6.92959C5.02179 3.83375 5.02179 1.05547 4.91958 0H7.79729C7.78292 1.06928 7.76855 1.9023 7.76855 3.05442ZM14.9421 1.99895C14.9564 2.84578 14.9708 3.76318 14.9708 6.4985C14.9708 7.95745 14.1037 8.54041 13.0193 8.54041C11.9494 8.54041 11.5294 8.12467 11.5294 6.99863C11.5294 4.95672 11.5437 3.2201 11.5869 1.99895H8.8401C8.88482 2.90101 8.88482 3.8046 8.88482 4.84473C8.88482 5.65014 8.86885 6.30368 8.86885 7.58159C8.86885 9.6235 10.0107 10.5394 11.9334 10.5394C13.409 10.5394 14.3911 10.0945 14.8973 9.06661L14.9692 9.08042C14.9548 9.53759 14.9405 9.89964 14.9261 10.4136H17.6441C17.601 9.24764 17.601 7.94211 17.601 6.13646C17.601 4.1912 17.601 3.16488 17.6441 1.99742H14.9421V1.99895ZM23.1775 5.30497C21.1814 5.09633 20.921 4.79104 20.921 4.43052C20.921 4.04239 21.2676 3.81994 22.4685 3.81994C23.7269 3.81994 24.0894 4.08381 24.0894 4.61155V4.74961C24.3481 4.73581 24.7825 4.722 25.2169 4.722C25.6943 4.722 26.199 4.73581 26.504 4.76342C26.5184 4.61155 26.5343 4.48575 26.5343 4.36148C26.5343 2.6939 25.3781 1.83327 22.5148 1.83327C19.6515 1.83327 18.3787 2.6801 18.3787 4.3891C18.3787 5.80662 19.1149 6.79152 21.9495 7.083C23.7716 7.23642 24.1325 7.51256 24.1325 7.92983C24.1325 8.37319 23.7716 8.59564 22.5851 8.59564C21.2117 8.59564 20.8061 8.30416 20.8061 7.76262V7.62455C20.5026 7.65216 20.0699 7.66597 19.6499 7.66597C19.1309 7.66597 18.6662 7.63835 18.3627 7.61074C18.3627 7.735 18.3484 7.8746 18.3484 7.98506C18.3484 9.58207 19.3161 10.5961 22.5563 10.5961C25.5474 10.5961 26.6621 9.56827 26.6621 7.97125C26.6605 6.40186 25.8365 5.59645 23.1775 5.30497ZM31.2469 8.26273C30.3654 8.26273 30.062 7.99887 30.062 7.25022C30.062 6.12418 30.062 5.11013 30.0764 4.15284C31.1751 4.16665 32.2307 4.19427 32.895 4.20807C32.8806 3.54227 32.9094 2.65248 32.9381 2.00048C32.1141 2.01429 31.116 2.0281 30.1195 2.0281C30.1339 1.38991 30.1482 0.791603 30.1626 0.20864C29.7442 0.236254 29.2811 0.236252 28.8467 0.236252C28.398 0.236252 27.9077 0.222447 27.5021 0.20864C27.5021 0.722568 27.5021 1.34695 27.4877 2.01429L27.4733 4.11143C27.4733 5.38934 27.459 6.63811 27.459 7.5417C27.459 9.26298 28.2686 10.5133 30.8844 10.5133C31.8394 10.5133 32.36 10.3875 33.1553 10.2218C33.0531 9.59588 32.895 8.72143 32.8231 7.98506C32.4175 8.15228 31.8682 8.26273 31.2469 8.26273ZM49.334 0H45.9948C45.5461 1.01405 44.7077 3.05442 43.8693 5.08252C43.6664 5.54122 43.4509 6.11037 43.248 6.68106H43.2049C43.0165 6.0981 42.7993 5.52741 42.5981 5.06871C41.6878 3.02681 40.9197 1.02786 40.4582 0H36.8155C36.8443 1.36229 36.8443 2.91635 36.8443 5.19451C36.8443 7.4021 36.8443 8.91627 36.7868 10.4151H39.2732C39.2445 8.51279 39.2014 6.99863 39.2014 4.91683C39.187 4.11143 39.1439 3.31829 39.1151 2.52822L39.1726 2.51441C39.4026 3.26306 39.6629 4.07 39.9519 4.722L42.3521 10.4166H43.5658L45.9086 4.86161C46.1816 4.25103 46.4419 3.41801 46.6879 2.6126H46.7454C46.7022 3.4042 46.6591 4.25103 46.6591 4.9736C46.6448 7.02931 46.6304 8.50052 46.5585 10.4166H49.3628C49.3053 8.91627 49.2909 7.40363 49.2909 5.19604C49.2909 2.91635 49.3053 1.36076 49.334 0ZM59.3501 6.06895C59.3501 8.8457 57.6142 10.5961 54.7094 10.5961C51.8173 10.5961 50.1261 8.8457 50.1261 6.06895C50.1261 3.27687 51.9482 1.80412 54.7094 1.80412C57.4705 1.80412 59.3501 3.27687 59.3501 6.06895ZM56.7471 6.1518C56.7471 4.62382 55.9678 3.99943 54.7094 3.99943C53.4653 3.99943 52.6701 4.5824 52.6701 6.1518C52.6701 7.70739 53.451 8.41461 54.7094 8.41461C55.9965 8.41461 56.7471 7.67977 56.7471 6.1518ZM65.5128 1.99895C65.3531 2.67856 64.7462 4.63763 64.3278 6.26225C64.0675 7.12289 63.8791 7.83165 63.7641 8.387H63.6204C63.4894 7.83319 63.3169 7.12289 63.071 6.27606C62.6526 4.67905 62.0298 2.76294 61.8573 1.99895H58.8934C59.703 4.19273 61.4246 9.06814 61.9292 10.4151C62.1895 10.3875 62.8395 10.3875 63.6651 10.3875C64.4013 10.3875 64.9091 10.4013 65.3275 10.4151C65.7906 9.06814 67.5105 4.1375 68.3058 1.99895H65.5128ZM72.913 6.88817C71.9453 6.88817 70.9903 6.90198 70.3403 6.90198C70.4553 8.30569 71.0622 8.75059 72.3509 8.75059C73.5646 8.75059 73.9127 8.38853 73.9415 7.73653C74.2736 7.76415 74.6633 7.77796 75.1408 7.77796C75.6311 7.77796 76.0079 7.76415 76.3113 7.73653C76.3561 9.5698 75.5608 10.5977 72.3062 10.5977C69.5163 10.5977 67.8395 9.18014 67.8395 6.22236C67.8395 3.16794 69.5898 1.81946 72.3653 1.81946C75.3133 1.81946 76.3113 3.22317 76.3113 5.36173C76.3113 6.04134 76.2826 6.52765 76.2539 6.91732C75.4714 6.88817 74.1555 6.88817 72.913 6.88817ZM73.8968 5.58264C73.9111 5.47218 73.9111 5.34639 73.9111 5.19451C73.9111 4.09762 73.448 3.65272 72.2615 3.65272C71.0909 3.65272 70.4984 4.04239 70.3531 5.57037C71.5396 5.61025 72.8252 5.59645 73.8968 5.58264ZM80.3005 0C80.3437 1.50036 80.3437 2.98538 80.3437 5.20832C80.3437 7.41591 80.3437 8.90246 80.3005 10.4151H83.1766C83.1335 8.88712 83.1335 7.4021 83.1335 5.19451C83.1335 2.97158 83.1335 1.47122 83.1766 0H80.3005ZM93.0586 10.4151C93.0155 9.49923 93.0155 8.60945 93.0155 7.55551C93.0155 6.80533 93.0442 6.20702 93.0442 5.01348C93.0442 2.74913 91.9599 1.87469 90.0084 1.87469C88.5616 1.87469 87.5507 2.31958 87.0157 3.36124L86.9295 3.33363C86.9582 2.87646 86.9726 2.51441 86.987 2.00048H84.2546C84.2849 3.1526 84.2993 4.45814 84.2993 6.2776C84.2993 8.20904 84.2993 9.23536 84.2546 10.4166H86.9726C86.9582 9.58361 86.9439 8.6524 86.9439 5.9723C86.9439 4.54098 87.7823 3.98716 88.881 3.98716C89.9797 3.98716 90.3709 4.43052 90.3709 5.58417C90.3709 7.57085 90.3565 9.2369 90.3278 10.4166H93.0586V10.4151Z" fill="#1B0025"/>
<path d="M0.272372 13.5473C15.8586 13.2758 59.267 12.5333 94.8727 13.4952C95.1026 13.5013 94.9701 13.7007 94.8711 13.9078C94.705 14.2561 94.6794 14.319 94.4495 14.3159C89.1364 14.273 83.8217 14.276 78.5071 14.2975C83.5582 14.5276 88.6381 14.7976 93.6829 15.1581C93.7612 15.1643 93.7644 15.1612 93.7851 15.3054C93.8027 15.4343 93.7724 15.4374 93.6941 15.4312C86.2092 14.9188 78.6508 14.5782 71.1499 14.3343C63.6203 14.3988 56.0891 14.5138 48.5594 14.6611C33.2654 14.971 17.7686 15.4143 2.48415 15.9866C2.13601 16.0004 1.93959 15.8147 1.82142 15.4235C1.64415 14.836 1.70484 14.7577 2.05297 14.7439L2.63906 14.7271C14.9308 14.3236 27.2209 14.0352 39.5143 13.8035C26.4448 13.7498 13.2269 13.8388 0.162182 14.1057C0.00568092 14.1103 -0.0246605 13.9861 0.0168602 13.8373C0.0823353 13.6056 0.160586 13.5565 0.250015 13.5504L0.272372 13.5473Z" fill="#FB654D"/>
</svg>
