<svg width="12" height="12" viewBox="0 0 12 12" fill="none" xmlns="http://www.w3.org/2000/svg">
<path d="M1.25 10C1.25 8.5 2.175 7.32 3.79 7C5 6.76 6.25 6 6.75 5.5M5.75 9.5C4.87203 9.50266 4.02513 9.17525 3.37726 8.58271C2.72939 7.99017 2.32788 7.17577 2.25237 6.30105C2.17685 5.42633 2.43285 4.55518 2.96957 3.86037C3.5063 3.16556 4.28456 2.69785 5.15 2.55C8 2 8.75 1.74 9.75 0.5C10.25 1.5 10.75 2.59 10.75 4.5C10.75 7.25 8.36 9.5 5.75 9.5Z" stroke="black" stroke-linecap="round" stroke-linejoin="round"/>
</svg>
